<?xml version="1.0" encoding="utf-8"?>
<!-- Generator: Adobe Illustrator 18.1.1, SVG Export Plug-In . SVG Version: 6.00 Build 0)  -->
<svg version="1.1" id="Layer_1" xmlns="http://www.w3.org/2000/svg" xmlns:xlink="http://www.w3.org/1999/xlink" x="0px" y="0px"
	 viewBox="0 0 24 24" enable-background="new 0 0 24 24" xml:space="preserve">
<g>
	<g id="color_x5F_bg">
		<path fill="#4AC6C6" d="M12,24L12,24C5.4,24,0,18.6,0,12l0,0C0,5.4,5.4,0,12,0l0,0c6.6,0,12,5.4,12,12l0,0C24,18.6,18.6,24,12,24z
			"/>
	</g>
	<g id="Layer_1_1_">
		<g>
			<path fill="#FF4E4A" d="M8.8,13.8H4.5V9.7c0-1.3,1-2.3,2.3-2.3h2C8.8,7.4,8.8,13.8,8.8,13.8z"/>
			<circle fill="#F4C37D" cx="5.7" cy="13.5" r="1.5"/>
			<circle fill="#F4C37D" cx="17.5" cy="13.5" r="1.5"/>
			<path fill="#F4C37D" d="M11.7,20.6L11.7,20.6c-3.2,0-5.9-2.6-5.9-5.9v-2.7c0-1.3,1-2.3,2.3-2.3h9.5v4.9
				C17.5,18,14.9,20.6,11.7,20.6z"/>
			<path fill="#FF4E4A" d="M16.2,14.6v0.7c0,0.5-0.4,0.7-0.7,0.7h-3.7H8c-0.5,0-0.7-0.4-0.7-0.7v-0.7c0-0.7-0.6-1.4-1.3-1.5v1.7
				c0,3.2,2.6,5.9,5.9,5.9s5.8-2.6,5.8-5.9v-1.7C16.8,13.2,16.2,13.9,16.2,14.6z"/>
			<circle fill="#2A5083" cx="9.3" cy="13.9" r="0.7"/>
			<circle fill="#2A5083" cx="14" cy="13.9" r="0.7"/>
			<g>
				<path fill="#2A5083" d="M11.7,19.3c1.1,0,1.9-0.7,2.1-1.7c0.1-0.2-0.1-0.4-0.3-0.4H9.9c-0.2,0-0.4,0.2-0.3,0.4
					C9.7,18.6,10.7,19.3,11.7,19.3z"/>
			</g>
			<path fill="#FF4E4A" d="M17.5,9.8H6.7l0,0c0-2.5,2-4.6,4.6-4.6h7.7v3.1C18.9,9.2,18.6,9.8,17.5,9.8z"/>
			<path fill="#FF4E4A" d="M8.5,12.7l1.1-0.2c0.3-0.1,0.5-0.4,0.5-0.7l0,0c-0.1-0.3-0.4-0.5-0.7-0.5l-1.1,0.2
				c-0.3,0.1-0.5,0.4-0.5,0.7l0,0C7.9,12.5,8.3,12.7,8.5,12.7z"/>
			<path fill="#FF4E4A" d="M14.8,12.7l-1.1-0.2c-0.3-0.1-0.5-0.4-0.5-0.7l0,0c0.1-0.3,0.4-0.5,0.7-0.5l1.1,0.2
				c0.3,0.1,0.5,0.4,0.5,0.7l0,0C15.5,12.5,15.1,12.7,14.8,12.7z"/>
			<circle fill="#F4C37D" cx="11.7" cy="15.3" r="1.2"/>
		</g>
	</g>
	<g id="Layer_2">
	</g>
</g>
</svg>
