<?xml version="1.0" encoding="utf-8"?>
<!-- Generator: Adobe Illustrator 18.1.1, SVG Export Plug-In . SVG Version: 6.00 Build 0)  -->
<svg version="1.1" id="Layer_1" xmlns="http://www.w3.org/2000/svg" xmlns:xlink="http://www.w3.org/1999/xlink" x="0px" y="0px"
	 viewBox="0 0 24 24" enable-background="new 0 0 24 24" xml:space="preserve">
<g>
	<g id="color_x5F_bg">
		<path fill="#4AC6C6" d="M12,24L12,24C5.4,24,0,18.6,0,12l0,0C0,5.4,5.4,0,12,0l0,0c6.6,0,12,5.4,12,12l0,0C24,18.6,18.6,24,12,24z
			"/>
	</g>
	<path fill="#E89920" d="M17.6,19.4H6.4c-0.4,0-0.6-0.3-0.6-0.6v-0.9h12.5v0.9C18.2,19.1,18,19.4,17.6,19.4z"/>
	<path fill="#E89920" d="M18.6,14.3H5.4c-0.9,0-1.7-0.7-1.7-1.7l0,0c0-0.9,0.7-1.7,1.7-1.7h13.2c0.9,0,1.7,0.7,1.7,1.7l0,0
		C20.3,13.6,19.5,14.3,18.6,14.3z"/>
	<path fill="#FFBD17" d="M18.2,17.9H5.8c-0.4,0-0.6-0.3-0.6-0.6v-5.9c-0.1-3.8,3-6.9,6.8-6.9l0,0c3.8,0,6.9,3.1,6.9,6.9v5.9
		C18.9,17.6,18.6,17.9,18.2,17.9z"/>
	<g>
		<circle fill="#FFFFFF" cx="8.9" cy="10.4" r="1.9"/>
		<circle fill="#2A5083" cx="8.9" cy="10.4" r="0.6"/>
		<circle fill="#FFFFFF" cx="15.1" cy="10.4" r="1.9"/>
		<circle fill="#2A5083" cx="15.1" cy="10.4" r="0.6"/>
		<path fill="#E89920" d="M12.5,13.9h-1.1c-0.5,0-0.8-0.5-0.5-1l0.5-0.8c0.2-0.4,0.8-0.4,1.1,0l0.5,0.8
			C13.3,13.3,13.1,13.9,12.5,13.9z"/>
		<path fill="#2A5083" d="M12,16.7c0.9,0,1.7-0.7,1.8-1.5c0.1-0.2-0.1-0.4-0.3-0.4h-3c-0.2,0-0.4,0.1-0.3,0.4
			C10.3,16.1,11.1,16.7,12,16.7z"/>
	</g>
	<path fill="#E89920" d="M12,8.2c0.7,0,1.3-0.5,1.3-1.3V4.6c-0.4-0.1-0.8-0.1-1.3-0.1c-0.4,0-0.9,0-1.3,0.1V7
		C10.7,7.6,11.3,8.2,12,8.2z"/>
	<g id="Layer_2">
	</g>
</g>
</svg>
