<?xml version="1.0" encoding="utf-8"?>
<!-- Generator: Adobe Illustrator 18.1.1, SVG Export Plug-In . SVG Version: 6.00 Build 0)  -->
<svg version="1.1" id="Layer_1" xmlns="http://www.w3.org/2000/svg" xmlns:xlink="http://www.w3.org/1999/xlink" x="0px" y="0px"
	 viewBox="0 0 24 24" enable-background="new 0 0 24 24" xml:space="preserve">
<g>
	<g id="color_x5F_bg">
		<path fill="#FF4E4A" d="M12,24L12,24C5.4,24,0,18.6,0,12l0,0C0,5.4,5.4,0,12,0l0,0c6.6,0,12,5.4,12,12l0,0C24,18.6,18.6,24,12,24z
			"/>
	</g>
	<circle fill="#F4C37D" cx="19" cy="13.2" r="1.2"/>
	<circle fill="#F4C37D" cx="5.9" cy="13.2" r="1.2"/>
	<path fill="#FFE1A4" d="M12.5,21.1L12.5,21.1c-3.6,0-6.6-2.9-6.6-6.5V8.6H19v5.9C19,18.1,16.1,21.1,12.5,21.1z"/>
	<path fill="#F4C37D" d="M8.8,10.2H5.9v4.3c0,3.4,2.6,6.2,5.9,6.5v-7.8C11.8,11.5,10.5,10.2,8.8,10.2z"/>
	<circle fill="#2A5083" cx="9.1" cy="12.5" r="0.7"/>
	<circle fill="#2A5083" cx="15.1" cy="12.5" r="0.7"/>
	<path fill="#2A5083" d="M15.7,8.6H5.9C5.1,8.6,4.5,8,4.5,7.3V5.3h9.8c0.7,0,1.3,0.6,1.3,1.3L15.7,8.6C15.7,8.6,15.7,8.6,15.7,8.6z"
		/>
	<path fill="#1B4068" d="M19,11.9L19,11.9c-1.8,0-3.3-1.5-3.3-3.3V7.3h1.9c0.7,0,1.3,0.6,1.3,1.3V11.9z"/>
	<path fill="#2A5083" d="M12.5,19.3c1.3,0,2.3-0.9,2.5-2.1c0.1-0.3-0.1-0.5-0.5-0.5h-4.3c-0.3,0-0.5,0.2-0.5,0.5
		C10.1,18.4,11.2,19.3,12.5,19.3z"/>
	<path fill="#FFFFFF" d="M10.4,16.7c0,0,0.3,1.3,0.7,1.3s0.7-1.3,0.7-1.3H10.4z"/>
	<path fill="#FFFFFF" d="M13.1,16.7c0,0,0.2,1.3,0.7,1.3s0.7-1.3,0.7-1.3H13.1z"/>
	<path fill="#FFE1A4" d="M12.7,15.5h-1.1c-0.5,0-0.9-0.4-0.9-0.9v-0.1c0-0.5,0.5-1,1-1h1L12.7,15.5L12.7,15.5z"/>
	<g id="Layer_2">
	</g>
</g>
</svg>
