<?xml version="1.0" encoding="utf-8"?>
<!-- Generator: Adobe Illustrator 19.0.0, SVG Export Plug-In . SVG Version: 6.00 Build 0)  -->
<svg version="1.1" id="bull" xmlns="http://www.w3.org/2000/svg" xmlns:xlink="http://www.w3.org/1999/xlink" x="0px" y="0px"
	 viewBox="0 0 24 24" enable-background="new 0 0 24 24" xml:space="preserve">
<g id="color_x5F_bg">
	<path id="XMLID_11_" fill="#7E61AA" d="M12,24L12,24C5.4,24,0,18.6,0,12l0,0C0,5.4,5.4,0,12,0l0,0c6.6,0,12,5.4,12,12l0,0
		C24,18.6,18.6,24,12,24z"/>
</g>
<g id="Layer_1_1_">
	<g>
		<circle id="XMLID_10_" fill="#FFE1A4" cx="5.5" cy="11.2" r="1.7"/>
		<circle id="XMLID_9_" fill="#FFE1A4" cx="18.5" cy="11.2" r="1.7"/>
		<path id="XMLID_8_" fill="#FFE1A4" d="M12,20.1L12,20.1c-3.7,0-6.6-3-6.6-6.6v-2.6c0-3.7,3-6.6,6.6-6.6l0,0c3.7,0,6.6,3,6.6,6.6
			v2.6C18.6,17.1,15.7,20.1,12,20.1z"/>
		<g>
			<circle id="XMLID_7_" fill="#2B5184" cx="9.6" cy="11.7" r="0.7"/>
			<circle id="XMLID_6_" fill="#2B5184" cx="14.4" cy="11.7" r="0.7"/>
		</g>
		<path id="XMLID_5_" fill="#FEBD1B" d="M13.6,20.7h-3.2c-1,0-1.7-0.8-1.7-1.7v-2.4c0-1,0.8-1.7,1.7-1.7h3.2c1,0,1.7,0.8,1.7,1.7V19
			C15.3,20,14.5,20.7,13.6,20.7z"/>
		<g>
			<path id="XMLID_4_" fill="#2B5184" d="M12,18.3c0.8,0,1.4-0.5,1.7-1.1c0.1-0.3-0.2-0.6-0.4-0.6h-2.4c-0.3,0-0.5,0.3-0.4,0.6
				C10.6,17.8,11.2,18.3,12,18.3z"/>
		</g>
		<circle id="XMLID_3_" fill="#FFE1A4" cx="12" cy="14.2" r="1.3"/>
		<path id="XMLID_2_" fill="#FEBD1B" d="M15.5,10.1l-1.3-0.3c-0.4-0.1-0.6-0.5-0.5-0.8l0,0c0.1-0.4,0.4-0.6,0.8-0.5l1.3,0.3
			c0.4,0.1,0.6,0.5,0.5,0.8l0,0C16.3,10,15.9,10.2,15.5,10.1z"/>
		<path id="XMLID_1_" fill="#FEBD1B" d="M8.5,10.1l1.3-0.3c0.4-0.1,0.6-0.5,0.5-0.8l0,0c-0.1-0.4-0.4-0.6-0.8-0.5L8.2,8.8
			C7.8,8.9,7.6,9.2,7.6,9.6l0,0C7.7,10,8.1,10.2,8.5,10.1z"/>
	</g>
</g>
<g id="Layer_2">
</g>
</svg>
