<svg id="Layer_1" data-name="Layer 1" xmlns="http://www.w3.org/2000/svg" viewBox="0 0 100 25"><defs><style>.cls-1{fill:#fff;}</style></defs><title>overbard_logotype_white_100px</title><polygon class="cls-1" points="28.95 6.93 25.29 6.93 22.21 17.59 22.17 17.59 19.11 6.93 15.12 6.93 20.19 22.13 24.2 22.13 28.95 7.97 28.95 22.13 37.39 22.13 37.39 18.72 32.67 18.72 32.67 16.11 37.25 16.11 37.25 12.7 32.67 12.7 32.67 10.34 37.39 10.34 37.39 6.93 29.3 6.93 28.95 6.93"/><path class="cls-1" d="M49.52,12.17A5.29,5.29,0,0,0,47.65,8c-1-.76-2-1.08-4.69-1.08H38.15v15.2h3.72V17.22h0l3.52,4.91h4.44L45.74,17A4.61,4.61,0,0,0,49.52,12.17Zm-6.27,2.4H41.87V10.34h1.42c1.5,0,2.51.67,2.51,2.05C45.8,13.13,45.53,14.57,43.25,14.57Z"/><path class="cls-1" d="M58.62,14a3.43,3.43,0,0,0,1.77-3.06,3.48,3.48,0,0,0-.91-2.5c-1.11-1.24-2.3-1.48-4.87-1.48H49.93v15.2h4.83c2.57,0,3.57-.14,5-1.31a4.37,4.37,0,0,0,1.4-3.31A3.51,3.51,0,0,0,58.62,14Zm-5-3.63H55c.59,0,1.64,0,1.64,1.15S55.56,12.7,55,12.7H53.65Zm1.83,8.38H53.65V16h1.83c.61,0,1.93,0,1.93,1.31S56,18.72,55.48,18.72Z"/><path class="cls-1" d="M67.58,6.41A2.59,2.59,0,1,0,65,3.82,2.59,2.59,0,0,0,67.58,6.41Zm0-3.51a.91.91,0,1,1-.9.92A.9.9,0,0,1,67.58,2.9Z"/><path class="cls-1" d="M97.6,9.76c-2-2.83-5-2.83-6.72-2.83h-5v3.69A5,5,0,0,0,84.18,8c-1-.76-2-1.08-4.68-1.08H74.69v14l-5.55-14H66.08L60,22.13h4.17l.8-2.2h5.28l.74,2.2h7.44V17.22h0L82,22.13h9.21C97,22.13,99,18.64,99,14.49A7.77,7.77,0,0,0,97.6,9.76ZM66,16.85l1.56-5.2h.06l1.56,5.2Zm13.77-2.28H78.41V10.34h1.42c1.5,0,2.5.67,2.5,2.05C82.33,13.13,82.07,14.57,79.79,14.57ZM82.27,17a4.33,4.33,0,0,0,3.58-3.3v7.79Zm9.13,1.77H89.73V10.34h1.69a3.23,3.23,0,0,1,3,1.39,5.44,5.44,0,0,1,.74,2.82C95.12,16.71,94.29,18.72,91.4,18.72Z"/><path class="cls-1" d="M9,10.05a3.84,3.84,0,0,1,2.53.89l2.55-2.55A8,8,0,0,0,9,6.64,7.92,7.92,0,0,0,4.12,8.23l2.56,2.56A3.92,3.92,0,0,1,9,10.05Z"/><path class="cls-1" d="M12.63,12.32a5.06,5.06,0,0,1,.53,2.23A5,5,0,0,1,12.52,17l2.66,2.67a7.83,7.83,0,0,0,1.87-5.1,7.94,7.94,0,0,0-1.71-4.92Z"/><path class="cls-1" d="M4.88,14.49a4.91,4.91,0,0,1,.64-2.41L2.86,9.42A7.34,7.34,0,0,0,1.6,11.47,8.44,8.44,0,0,0,1,14.71a7.63,7.63,0,0,0,1.7,4.75l2.71-2.72A5,5,0,0,1,4.88,14.49Z"/><path class="cls-1" d="M9.08,19a3.94,3.94,0,0,1-2.58-.9L3.92,20.69A8.08,8.08,0,0,0,9,22.42a8.1,8.1,0,0,0,4.93-1.6l-2.55-2.55A3.76,3.76,0,0,1,9.08,19Z"/></svg>